<?xml version="1.0" standalone="no"?>
<svg viewBox="0 0 200 200" xmlns="http://www.w3.org/2000/svg">
  <path fill="#8A3FFC" d="M48.2,-61.3C63.8,-54.9,78.8,-42.7,83.3,-27.4C87.8,-12.1,81.8,6.3,73.3,21.1C64.8,35.9,53.6,47.2,41,49.4C28.4,51.6,14.2,44.8,-1.4,46.7C-16.9,48.5,-33.9,59.2,-46.1,56.9C-58.3,54.5,-65.7,39.2,-66.9,24.4C-68.1,9.6,-62.9,-4.6,-55.4,-14.9C-47.8,-25.3,-37.8,-31.8,-28.2,-40.1C-18.6,-48.5,-9.3,-58.6,3.5,-63.4C16.3,-68.2,32.5,-67.7,48.2,-61.3Z" transform="translate(100 100)" />
</svg>
